HIERARCHY
ROOT Hips
{
	OFFSET 0.000000 0.000000 0.000000
	CHANNELS 6 Xposition Yposition Zposition Zrotation Yrotation Xrotation 
	JOINT LHipJoint
	{
		OFFSET 0.000000 0.000000 0.000000
		CHANNELS 3 Zrotation Yrotation Xrotation
		JOINT LeftUpLeg
		{
			OFFSET 1.363060 -1.794630 0.839290
			CHANNELS 3 Zrotation Yrotation Xrotation
			JOINT LeftLeg
			{
				OFFSET 2.448110 -6.726130 0.000000
				CHANNELS 3 Zrotation Yrotation Xrotation
				JOINT LeftFoot
				{
					OFFSET 2.562200 -7.039590 0.000000
					CHANNELS 3 Zrotation Yrotation Xrotation
					JOINT LeftToeBase
					{
						OFFSET 0.157640 -0.433110 2.322550
						CHANNELS 3 Zrotation Yrotation Xrotation
						End Site
						{
							OFFSET 0.000000 0.000000 0.000000
						}
					}
				}
			}
		}
	}
	JOINT RHipJoint
	{
		OFFSET 0.000000 0.000000 0.000000
		CHANNELS 3 Zrotation Yrotation Xrotation
		JOINT RightUpLeg
		{
			OFFSET -1.305520 -1.794630 0.839290
			CHANNELS 3 Zrotation Yrotation Xrotation
			JOINT RightLeg
			{
				OFFSET -2.542530 -6.985550 0.000000
				CHANNELS 3 Zrotation Yrotation Xrotation
				JOINT RightFoot
				{
					OFFSET -2.568260 -7.056230 0.000000
					CHANNELS 3 Zrotation Yrotation Xrotation
					JOINT RightToeBase
					{
						OFFSET -0.164730 -0.452590 2.363150
						CHANNELS 3 Zrotation Yrotation Xrotation
						End Site
						{
							OFFSET 0.000000 0.000000 0.000000
						}
					}
				}
			}
		}
	}
	JOINT LowerBack
	{
		OFFSET 0.000000 0.000000 0.000000
		CHANNELS 3 Zrotation Yrotation Xrotation
		JOINT Spine
		{
			OFFSET 0.028270 2.035590 -0.193380
			CHANNELS 3 Zrotation Yrotation Xrotation
			JOINT Spine1
			{
				OFFSET 0.056720 2.048850 -0.042750
				CHANNELS 3 Zrotation Yrotation Xrotation
				JOINT Neck
				{
					OFFSET 0.000000 0.000000 0.000000
					CHANNELS 3 Zrotation Yrotation Xrotation
					JOINT Neck1
					{
						OFFSET -0.054170 1.746240 0.172020
						CHANNELS 3 Zrotation Yrotation Xrotation
						JOINT Head
						{
							OFFSET 0.104070 1.761360 -0.123970
							CHANNELS 3 Zrotation Yrotation Xrotation
							End Site
							{
								OFFSET 0.000000 0.000000 0.000000
							}
						}
					}
				}
				JOINT LeftShoulder
				{
					OFFSET 0.000000 0.000000 0.000000
					CHANNELS 3 Zrotation Yrotation Xrotation
					JOINT LeftArm
					{
						OFFSET 3.362410 1.200890 -0.311210
						CHANNELS 3 Zrotation Yrotation Xrotation
						JOINT LeftForeArm
						{
							OFFSET 4.983000 -0.000000 -0.000000
							CHANNELS 3 Zrotation Yrotation Xrotation
							JOINT LeftHand
							{
								OFFSET 3.483560 -0.000000 -0.000000
								CHANNELS 3 Zrotation Yrotation Xrotation
								JOINT LeftFingerBase
								{
									OFFSET 0.000000 0.000000 0.000000
									CHANNELS 3 Zrotation Yrotation Xrotation
									JOINT LeftHandIndex1
									{
										OFFSET 0.715260 -0.000000 -0.000000
										CHANNELS 3 Zrotation Yrotation Xrotation
										End Site
										{
											OFFSET 0.000000 0.000000 0.000000
										}
									}
								}
								JOINT LThumb
								{
									OFFSET 0.000000 0.000000 0.000000
									CHANNELS 3 Zrotation Yrotation Xrotation
									End Site
									{
										OFFSET 0.000000 0.000000 0.000000
									}
								}
							}
						}
					}
				}
				JOINT RightShoulder
				{
					OFFSET 0.000000 0.000000 0.000000
					CHANNELS 3 Zrotation Yrotation Xrotation
					JOINT RightArm
					{
						OFFSET -3.136600 1.374050 -0.404650
						CHANNELS 3 Zrotation Yrotation Xrotation
						JOINT RightForeArm
						{
							OFFSET -5.241900 -0.000000 -0.000000
							CHANNELS 3 Zrotation Yrotation Xrotation
							JOINT RightHand
							{
								OFFSET -3.444170 -0.000000 -0.000000
								CHANNELS 3 Zrotation Yrotation Xrotation
								JOINT RightFingerBase
								{
									OFFSET 0.000000 0.000000 0.000000
									CHANNELS 3 Zrotation Yrotation Xrotation
									JOINT RightHandIndex1
									{
										OFFSET -0.622530 -0.000000 -0.000000
										CHANNELS 3 Zrotation Yrotation Xrotation
										End Site
										{
											OFFSET 0.000000 0.000000 0.000000
										}
									}
								}
								JOINT RThumb
								{
									OFFSET 0.000000 0.000000 0.000000
									CHANNELS 3 Zrotation Yrotation Xrotation
									End Site
									{
										OFFSET 0.000000 0.000000 0.000000
									}
								}
							}
						}
					}
				}
			}
		}
	}
}
MOTION
Frames: 11
Frame Time: 0.008333
-6.741314 16.985517 1.998581 -46.465968 86.744563 -31.587449 -8.556475 0.474976 -2.185239 -18.314237 12.314144 -37.865817 -3.287562 0.144239 13.635247 1.430045 8.405049 -1.027144 1.359600 -0.000000 -4.310000 11.153880 -1.577195 -3.599742 6.387964 -8.675572 -9.779316 1.463446 -2.512301 36.158472 0.615733 7.358058 -1.347059 0.598100 0.000000 -72.768500 -7.309743 1.547361 6.966563 -3.047313 1.847937 -1.697910 -8.756163 1.782452 0.285623 7.595839 6.016967 4.934456 -5.671197 -0.463522 2.760288 0.000000 0.000000 0.000000 -4.433733 0.531108 1.498066 -61.466835 -9.742645 12.116281 -3.571526 -23.757442 -0.001699 3.564120 0.926762 0.029229 -0.077193 0.021024 0.000000 0.000000 0.000000 0.000000 0.000000 0.000000 0.000000 21.363421 4.886664 -1.241533 76.731408 21.232767 5.683131 2.713105 22.594924 0.008519 2.928648 8.733527 0.225728 0.015123 -0.110415 0.000000 0.000000 0.000000 0.000000 0.000000 0.000000 0.000000 
-6.635667 17.009828 1.960937 -40.413985 86.847146 -25.612462 -8.752114 0.486378 -2.219355 -18.406170 12.355562 -37.160681 -3.287779 0.126185 13.504893 1.459653 8.500556 -1.539799 1.276900 -0.000000 -4.425399 11.124429 -1.547431 -3.678674 5.748747 -8.959524 -10.872923 1.189941 -2.720702 38.457021 0.642528 7.974982 0.935176 0.944099 -0.000000 -74.528600 -7.757816 1.514423 7.066975 -3.130241 1.822322 -1.679251 -8.724966 1.756914 0.272854 7.362250 6.144165 5.005381 -5.656795 -0.462912 2.773365 0.000000 0.000000 0.000000 -4.496469 0.174821 1.540118 -61.346697 -10.269020 12.058309 -3.639356 -22.323455 -0.002227 3.343796 1.246716 0.036914 -0.076927 0.023668 0.000000 0.000000 0.000000 0.000000 0.000000 0.000000 0.000000 21.053634 4.923410 -1.214491 77.034203 20.605242 4.488649 2.726869 21.591624 0.008481 2.814830 8.529499 0.211624 0.018085 -0.106236 0.000000 0.000000 0.000000 0.000000 0.000000 0.000000 0.000000 
-6.531734 17.032611 1.921049 -36.889342 86.915349 -22.155181 -8.892715 0.488958 -2.272772 -18.480119 12.473716 -36.476845 -3.291787 0.096116 13.334923 1.470764 8.514412 -1.983788 1.194301 0.000001 -4.506900 11.146429 -1.522442 -3.730301 5.209809 -9.176331 -11.983710 0.930373 -2.913358 40.689998 0.634715 8.527905 3.183375 1.340700 -0.000001 -75.673400 -8.043491 1.469153 7.164090 -3.179837 1.782282 -1.657209 -8.693840 1.717264 0.268005 7.094174 6.274020 5.076094 -5.642821 -0.462190 2.786395 0.000000 0.000000 0.000000 -4.586987 -0.168145 1.584135 -61.238009 -10.850639 12.034184 -3.704897 -20.892203 -0.002772 3.109278 1.569885 0.043303 -0.076857 0.027128 0.000000 0.000000 0.000000 0.000000 0.000000 0.000000 0.000000 20.705426 4.955818 -1.186709 77.275668 19.975296 3.376094 2.747060 20.655466 0.008481 2.738816 8.281411 0.199619 0.021153 -0.101617 0.000000 0.000000 0.000000 0.000000 0.000000 0.000000 0.000000 
-6.429330 17.053695 1.879537 -35.459455 86.937607 -20.785724 -8.975328 0.501375 -2.336074 -18.534274 12.664406 -35.828379 -3.302530 0.062606 13.135765 1.465913 8.449546 -2.356376 1.114400 -0.000000 -4.533600 11.216015 -1.481496 -3.758825 4.764669 -9.321912 -13.094362 0.682799 -3.081059 42.851613 0.595586 8.972422 5.307799 1.754400 0.000000 -76.235401 -8.192197 1.424701 7.251666 -3.203360 1.740437 -1.634471 -8.666711 1.675681 0.270063 6.800912 6.400775 5.142850 -5.632593 -0.461506 2.798337 0.000000 0.000000 0.000000 -4.694740 -0.490378 1.627198 -61.137992 -11.476601 12.030614 -3.766157 -19.487715 -0.003310 2.876155 1.884517 0.048194 -0.076896 0.031253 0.000000 0.000000 0.000000 0.000000 0.000000 0.000000 0.000000 20.344998 4.984152 -1.155919 77.451446 19.353247 2.365848 2.774943 19.781216 0.008519 2.713233 7.989194 0.190413 0.024248 -0.096627 0.000000 0.000000 0.000000 0.000000 0.000000 0.000000 0.000000 
-6.328332 17.073152 1.837136 -35.413600 86.931739 -20.795937 -9.018079 0.526221 -2.402772 -18.577752 12.905192 -35.211077 -3.319582 0.029227 12.912294 1.448001 8.318329 -2.660087 1.039400 -0.000000 -4.497500 11.312073 -1.420284 -3.771383 4.392232 -9.406374 -14.192567 0.449495 -3.223812 44.938446 0.530241 9.255368 7.224630 2.141100 0.000000 -76.295800 -8.252341 1.382796 7.328938 -3.211010 1.699316 -1.612568 -8.644565 1.634512 0.275211 6.494371 6.513560 5.206269 -5.629271 -0.461068 2.809307 0.000000 0.000000 0.000000 -4.801447 -0.818916 1.668714 -61.047701 -12.105007 12.002790 -3.820842 -18.148417 -0.003820 2.660777 2.183126 0.051687 -0.076892 0.035858 0.000000 0.000000 0.000000 0.000000 0.000000 0.000000 0.000000 20.000429 4.996785 -1.118819 77.556926 18.750753 1.476280 2.810042 18.959628 0.008569 2.743276 7.653005 0.184206 0.027269 -0.091308 0.000000 0.000000 0.000000 0.000000 0.000000 0.000000 0.000000 
-6.228700 17.091129 1.794275 -36.714450 86.903069 -22.149626 -9.020778 0.563766 -2.469476 -18.602922 13.173836 -34.624519 -3.341350 -0.002384 12.681284 1.419303 8.128546 -2.910381 0.968601 -0.000001 -4.401100 11.433151 -1.338763 -3.773521 4.093592 -9.440262 -15.267750 0.232380 -3.344858 46.944577 0.443505 9.312979 8.865465 2.450600 -0.000000 -75.948599 -8.231945 1.341432 7.399196 -3.204749 1.657112 -1.589209 -8.630436 1.592279 0.289811 6.185136 6.621430 5.259324 -5.632780 -0.460740 2.817064 0.000000 0.000000 0.000000 -4.909962 -1.094416 1.708110 -60.958204 -12.809589 12.017041 -3.870840 -16.844659 -0.004299 2.487857 2.444177 0.054183 -0.077030 0.041005 0.000000 0.000000 0.000000 0.000000 0.000000 0.000000 0.000000 19.683639 5.003046 -1.081352 77.595108 18.167304 0.673154 2.851805 18.193634 0.008607 2.838095 7.280351 0.181098 0.030060 -0.085655 0.000000 0.000000 0.000000 0.000000 0.000000 0.000000 0.000000 
-6.130346 17.107920 1.751541 -39.210350 86.868081 -24.697640 -8.987970 0.609961 -2.533127 -18.607484 13.438426 -34.053117 -3.364840 -0.033571 12.447639 1.383523 7.899741 -3.123244 0.902100 0.000000 -4.257300 11.574955 -1.241572 -3.771411 3.859016 -9.440787 -16.311873 0.032798 -3.450650 48.866301 0.339390 9.091440 10.185235 2.638100 -0.000001 -75.306900 -8.148842 1.296977 7.466380 -3.188193 1.610743 -1.565251 -8.624410 1.545659 0.306502 5.883479 6.714600 5.308235 -5.644983 -0.460703 2.823378 0.000000 0.000000 0.000000 -5.002030 -1.372125 1.746532 -60.874430 -13.520403 12.005056 -3.912487 -15.625520 -0.004744 2.373198 2.664145 0.056380 -0.077006 0.046471 0.000000 0.000000 0.000000 0.000000 0.000000 0.000000 0.000000 19.413205 4.988329 -1.039217 77.563759 17.610089 -0.037675 2.898906 17.471369 0.008608 2.987788 6.879229 0.180090 0.032621 -0.079770 0.000000 0.000000 0.000000 0.000000 0.000000 0.000000 0.000000 
-6.033334 17.123815 1.709198 -43.262078 86.830408 -28.802451 -8.910586 0.660011 -2.593095 -18.579534 13.670623 -33.482734 -3.386656 -0.067055 12.219259 1.343822 7.648429 -3.318139 0.838900 0.000000 -4.084000 11.747275 -1.134593 -3.769391 3.691138 -9.423413 -17.318013 -0.148063 -3.548902 50.696778 0.219718 8.548585 11.162056 2.670100 0.000000 -74.451500 -7.992795 1.243991 7.536733 -3.159302 1.554956 -1.538688 -8.628148 1.489550 0.326454 5.597622 6.795048 5.351680 -5.665475 -0.460885 2.827767 0.000000 0.000000 0.000000 -5.076511 -1.638959 1.784677 -60.794041 -14.257266 11.987227 -3.945436 -14.490157 -0.005163 2.333932 2.831899 0.058878 -0.076789 0.052221 0.000000 0.000000 0.000000 0.000000 0.000000 0.000000 0.000000 19.195625 4.951628 -0.994992 77.465646 17.079279 -0.681261 2.950041 16.791804 0.008554 3.182750 6.462358 0.180079 0.034948 -0.073734 0.000000 0.000000 0.000000 0.000000 0.000000 0.000000 0.000000 
-5.937640 17.139087 1.667437 -49.588079 86.794390 -35.182654 -8.777601 0.702231 -2.651940 -18.507737 13.842974 -32.895231 -3.402422 -0.108740 12.002570 1.302151 7.388566 -3.511048 0.778400 0.000000 -3.902000 11.962850 -1.032436 -3.770078 3.595076 -9.406820 -18.282452 -0.305648 -3.652250 52.425966 0.084223 7.663619 11.793752 2.531700 -0.000000 -73.407700 -7.742899 1.171882 7.618253 -3.113322 1.479739 -1.507100 -8.641937 1.414139 0.349205 5.334489 6.862436 5.391997 -5.693128 -0.461222 2.830832 0.000000 0.000000 0.000000 -5.131273 -1.902676 1.824184 -60.718209 -15.021140 11.971062 -3.968772 -13.443984 -0.005573 2.382142 2.938973 0.062178 -0.076294 0.058191 0.000000 0.000000 0.000000 0.000000 0.000000 0.000000 0.000000 19.032013 4.886442 -0.950559 77.304187 16.571782 -1.277860 3.003730 16.155276 0.008434 3.407031 6.046137 0.180267 0.037090 -0.067647 0.000000 0.000000 0.000000 0.000000 0.000000 0.000000 0.000000 
-5.843309 17.153988 1.626301 -59.330244 86.766807 -44.978903 -8.591287 0.708811 -2.717399 -18.387171 13.928255 -32.267674 -3.405495 -0.169258 11.804509 1.258131 7.128282 -3.710069 0.720200 0.000000 -3.730701 12.222454 -0.968802 -3.774940 3.572003 -9.416201 -19.206934 -0.428470 -3.782989 54.035610 -0.069190 6.439727 12.101161 2.228700 0.000001 -72.245000 -7.381779 1.057018 7.722394 -3.044930 1.363294 -1.466938 -8.663796 1.298117 0.372431 5.099850 6.915018 5.435456 -5.726405 -0.461682 2.834292 0.000000 0.000000 0.000000 -5.162885 -2.195702 1.869455 -60.650428 -15.785993 11.937181 -3.981576 -12.510320 -0.006001 2.522122 2.985024 0.066578 -0.075426 0.064338 0.000000 0.000000 0.000000 0.000000 0.000000 0.000000 0.000000 18.920075 4.778654 -0.907390 77.082973 16.082846 -1.836295 3.057804 15.563671 0.008242 3.638896 5.644813 0.179755 0.039114 -0.061566 0.000000 0.000000 0.000000 0.000000 0.000000 0.000000 0.000000 
-5.750242 17.168646 1.585597 -74.080465 86.749014 -59.777122 -8.403491 0.626589 -2.801089 -18.232928 13.902514 -31.583764 -3.386868 -0.262479 11.643284 1.207463 6.859275 -3.916355 0.663000 -0.000000 -3.583000 12.478674 -1.007671 -3.786454 3.610584 -9.488290 -20.104269 -0.496944 -3.975069 55.504815 -0.242464 4.905444 12.115147 1.784100 0.000001 -70.944800 -6.931971 0.858375 7.862506 -2.954969 1.168549 -1.411788 -8.688093 1.105961 0.399738 4.898991 6.946836 5.485389 -5.762756 -0.462197 2.839015 0.000000 0.000000 0.000000 -5.176169 -2.533791 1.926549 -60.590772 -16.560107 11.900095 -3.986069 -11.693517 -0.006484 2.749604 2.969413 0.071878 -0.074356 0.070721 0.000000 0.000000 0.000000 0.000000 0.000000 0.000000 0.000000 18.854100 4.603263 -0.871266 76.807472 15.606769 -2.357699 3.109027 15.027266 0.007958 3.854555 5.270643 0.177739 0.041032 -0.055431 0.000000 0.000000 0.000000 0.000000 0.000000 0.000000 0.000000 
